<?xml version="1.0" standalone="no"?>
<!DOCTYPE svg PUBLIC "-//W3C//DTD SVG 20010904//EN"
 "http://www.w3.org/TR/2001/REC-SVG-20010904/DTD/svg10.dtd">
<svg version="1.0" xmlns="http://www.w3.org/2000/svg"
 width="152.000000pt" height="160.000000pt" viewBox="0 0 152.000000 160.000000"
 preserveAspectRatio="xMidYMid meet">
<metadata>
Created by potrace 1.16, written by Peter Selinger 2001-2019
</metadata>
<g transform="translate(0.000000,160.000000) scale(0.100000,-0.100000)"
fill="#000000" stroke="none">
<path d="M0 800 l0 -800 760 0 760 0 0 800 0 800 -760 0 -760 0 0 -800z m1069
579 c179 -56 330 -104 334 -106 5 -3 -126 -63 -291 -133 l-300 -128 -346 106
c-190 59 -346 109 -346 112 0 10 575 249 599 250 13 0 171 -46 350 -101z m349
-925 c-7 -6 -123 -72 -258 -147 -135 -74 -266 -147 -293 -162 l-47 -27 2 442
3 442 300 128 300 128 3 -396 c2 -309 -1 -399 -10 -408z m-938 645 c162 -50
301 -94 308 -98 10 -6 13 -103 15 -444 1 -240 0 -437 -2 -437 -3 0 -161 62
-353 137 l-348 136 0 413 0 413 43 -14 c23 -8 175 -55 337 -106z"/>
<path d="M652 1412 c-9 -6 15 -11 66 -14 96 -7 140 -27 149 -69 7 -36 51 -75
101 -89 59 -17 222 -25 222 -12 0 8 -19 12 -49 12 -70 0 -152 17 -181 38 -13
10 -28 32 -32 49 -9 35 -38 57 -94 71 -59 16 -167 24 -182 14z"/>
<path d="M490 1351 c0 -7 25 -11 73 -11 106 0 142 -21 164 -95 11 -39 69 -71
153 -84 92 -15 173 -14 168 2 -3 8 -36 14 -94 18 -127 8 -156 24 -175 91 -9
34 -17 43 -57 60 -55 24 -232 39 -232 19z"/>
<path d="M334 1291 c4 -6 33 -11 65 -11 117 0 158 -21 166 -85 9 -75 66 -103
229 -112 73 -4 98 -3 95 6 -3 7 -35 13 -82 16 -100 5 -164 32 -172 72 -18 88
-65 115 -209 121 -71 3 -97 1 -92 -7z"/>
<path d="M1164 1069 c-48 -14 -130 -93 -173 -168 -64 -110 -86 -188 -86 -316
0 -96 3 -116 24 -158 87 -177 293 -71 397 203 25 67 28 88 28 200 1 118 0 127
-26 171 -17 28 -41 53 -62 63 -38 18 -56 19 -102 5z"/>
<path d="M582 646 c-22 -29 -56 -141 -48 -162 9 -23 25 -16 40 19 17 42 70 87
102 87 27 0 28 4 13 49 -10 27 -15 31 -49 31 -29 0 -43 -6 -58 -24z"/>
</g>
</svg>
