<?xml version="1.0" standalone="no"?>
<!DOCTYPE svg PUBLIC "-//W3C//DTD SVG 20010904//EN"
 "http://www.w3.org/TR/2001/REC-SVG-20010904/DTD/svg10.dtd">
<svg version="1.0" xmlns="http://www.w3.org/2000/svg"
 width="162.000000pt" height="170.000000pt" viewBox="0 0 162.000000 170.000000"
 preserveAspectRatio="xMidYMid meet">

<g transform="translate(0.000000,170.000000) scale(0.100000,-0.100000)"
fill="#000000" stroke="none">
<path d="M0 850 l0 -850 810 0 810 0 0 850 0 850 -810 0 -810 0 0 -850z m1129
569 c179 -56 330 -104 334 -106 5 -3 -126 -63 -291 -133 l-300 -128 -346 106
c-190 59 -346 109 -346 112 0 10 575 249 599 250 13 0 171 -46 350 -101z m349
-925 c-7 -6 -123 -72 -258 -147 -135 -74 -266 -147 -293 -162 l-47 -27 2 442
3 442 300 128 300 128 3 -396 c2 -309 -1 -399 -10 -408z m-938 645 c162 -50
301 -94 308 -98 10 -6 13 -103 15 -444 1 -240 0 -437 -2 -437 -3 0 -161 62
-353 137 l-348 136 0 413 0 413 43 -14 c23 -8 175 -55 337 -106z"/>
<path d="M712 1452 c-9 -6 15 -11 66 -14 96 -7 140 -27 149 -69 7 -36 51 -75
101 -89 59 -17 222 -25 222 -12 0 8 -19 12 -49 12 -70 0 -152 17 -181 38 -13
10 -28 32 -32 49 -9 35 -38 57 -94 71 -59 16 -167 24 -182 14z"/>
<path d="M550 1391 c0 -7 25 -11 73 -11 106 0 142 -21 164 -95 11 -39 69 -71
153 -84 92 -15 173 -14 168 2 -3 8 -36 14 -94 18 -127 8 -156 24 -175 91 -9
34 -17 43 -57 60 -55 24 -232 39 -232 19z"/>
<path d="M394 1331 c4 -6 33 -11 65 -11 117 0 158 -21 166 -85 9 -75 66 -103
229 -112 73 -4 98 -3 95 6 -3 7 -35 13 -82 16 -100 5 -164 32 -172 72 -18 88
-65 115 -209 121 -71 3 -97 1 -92 -7z"/>
<path d="M1224 1109 c-48 -14 -130 -93 -173 -168 -64 -110 -86 -188 -86 -316
0 -96 3 -116 24 -158 87 -177 293 -71 397 203 25 67 28 88 28 200 1 118 0 127
-26 171 -17 28 -41 53 -62 63 -38 18 -56 19 -102 5z m109 -66 c16 -15 16 -17
1 -35 -19 -20 -34 -24 -34 -7 0 6 -10 25 -22 41 l-22 31 30 -7 c16 -4 37 -15
47 -23z m-72 -49 c23 -38 23 -38 -23 -65 -16 -9 -18 -4 -18 46 0 30 4 55 9 55
5 0 19 -16 32 -36z m-127 -21 c-9 -21 -20 -50 -26 -65 -10 -28 -48 -40 -48
-15 0 19 73 117 87 117 2 0 -4 -17 -13 -37z m56 -17 c0 -50 -2 -54 -26 -60
-15 -4 -28 -6 -30 -4 -3 4 47 118 52 118 2 0 4 -24 4 -54z m199 -17 c16 -71
14 -77 -19 -94 l-29 -15 -6 37 c-3 21 -8 46 -10 57 -4 20 33 78 46 71 4 -3 12
-28 18 -56z m-85 -56 c10 -63 8 -68 -39 -91 l-45 -22 0 53 c0 47 3 54 33 74
17 12 35 22 38 22 4 1 9 -16 13 -36z m-114 -76 c0 -53 0 -53 -45 -75 -25 -12
-47 -22 -49 -22 -5 0 14 114 20 120 4 4 50 23 72 29 1 1 2 -23 2 -52z m-115
-21 c-15 -99 -17 -104 -41 -115 -14 -6 -30 -11 -35 -11 -13 0 -4 64 17 131 13
41 17 46 40 41 24 -4 25 -7 19 -46z m314 -18 c-19 -85 -30 -108 -50 -108 -19
0 -20 5 -14 58 5 39 13 63 27 75 35 30 47 22 37 -25z m-84 -35 c-11 -65 -15
-71 -51 -83 -20 -7 -37 -10 -38 -8 -2 1 -1 21 2 44 3 36 8 43 45 62 23 11 43
21 45 21 2 1 0 -16 -3 -36z m-115 -72 c0 -33 -5 -42 -40 -66 -22 -15 -42 -26
-44 -24 -2 2 -6 22 -9 45 -6 38 -5 41 31 62 53 31 62 28 62 -17z m-133 -152
c-11 -16 -22 -29 -24 -29 -7 0 -31 59 -37 91 -6 33 -4 36 26 51 l33 15 12 -50
c10 -45 10 -52 -10 -78z m268 101 c7 -11 -26 -70 -49 -89 -10 -8 -8 5 6 44 21
54 31 65 43 45z m-55 -10 c0 -13 -49 -110 -55 -110 -3 0 -5 23 -5 50 0 43 3
52 23 60 30 12 37 12 37 0z m-95 -129 c-4 -3 -18 8 -31 24 l-24 30 27 22 28
23 3 -46 c2 -25 0 -49 -3 -53z m-64 -3 c10 -13 18 -26 19 -30 0 -13 -35 -9
-55 6 -16 12 -17 16 -6 30 17 21 19 20 42 -6z"/>
<path d="M404 1045 c-20 -49 -28 -115 -20 -169 11 -68 23 -56 28 27 2 49 10
85 25 114 22 42 22 43 2 53 -17 10 -21 7 -35 -25z"/>
<path d="M310 1055 c-17 -21 -8 -158 14 -209 10 -21 19 -37 20 -35 2 2 -1 35
-7 72 -7 46 -7 88 -1 128 10 61 1 77 -26 44z"/>
<path d="M519 995 c-15 -8 -34 -32 -43 -55 -17 -42 -22 -145 -8 -154 5 -3 16
22 26 55 16 57 40 91 80 114 16 9 16 12 -6 32 -21 19 -25 20 -49 8z"/>
<path d="M242 916 c5 -54 43 -146 65 -153 6 -2 0 24 -14 59 -14 35 -28 82 -31
106 -7 63 -25 52 -20 -12z"/>
<path d="M598 856 c-35 -17 -58 -73 -58 -141 l1 -60 29 60 c29 61 68 95 109
95 20 0 21 1 6 24 -19 28 -55 38 -87 22z"/>
<path d="M210 810 c0 -22 51 -110 69 -120 34 -17 33 -11 -4 37 -19 25 -38 57
-41 70 -6 23 -24 33 -24 13z"/>
<path d="M410 739 c0 -5 5 -7 10 -4 6 3 10 8 10 11 0 2 -4 4 -10 4 -5 0 -10
-5 -10 -11z"/>
<path d="M440 720 c0 -5 5 -10 10 -10 6 0 10 5 10 10 0 6 -4 10 -10 10 -5 0
-10 -4 -10 -10z"/>
<path d="M642 686 c-22 -29 -56 -141 -48 -162 9 -23 25 -16 40 19 17 42 70 87
102 87 27 0 28 4 13 49 -10 27 -15 31 -49 31 -29 0 -43 -6 -58 -24z"/>
<path d="M220 697 c-1 -35 58 -97 92 -97 29 0 21 19 -15 34 -19 7 -43 26 -55
42 -12 16 -22 25 -22 21z"/>
<path d="M466 692 c-3 -6 -1 -14 5 -17 15 -10 25 3 12 16 -7 7 -13 7 -17 1z"/>
<path d="M480 642 c0 -5 7 -13 16 -16 10 -4 14 -1 12 6 -5 15 -28 23 -28 10z"/>
<path d="M490 593 c0 -5 10 -19 21 -33 l20 -25 -16 33 c-15 30 -25 41 -25 25z"/>
<path d="M270 551 c15 -29 57 -38 78 -17 15 15 14 16 -17 16 -18 0 -41 5 -52
11 -19 10 -19 9 -9 -10z"/>
<path d="M497 525 c3 -16 9 -37 14 -45 15 -27 10 11 -6 45 l-14 30 6 -30z"/>
<path d="M735 528 c-24 -14 -44 -39 -45 -55 0 -12 99 -77 107 -69 3 2 1 33 -4
68 -9 67 -20 78 -58 56z"/>
<path d="M369 504 c-9 -8 -26 -16 -37 -17 -28 -2 -23 -21 6 -25 13 -2 27 6 38
23 19 30 15 42 -7 19z"/>
<path d="M476 470 c8 -56 14 -64 14 -19 0 19 -5 41 -10 49 -7 10 -8 1 -4 -30z"/>
<path d="M393 454 c-17 -26 -19 -34 -8 -34 16 0 38 35 33 54 -2 7 -13 -2 -25
-20z"/>
<path d="M447 473 c-3 -10 -8 -31 -11 -48 -6 -28 -5 -29 9 -11 8 11 15 32 15
48 0 32 -6 37 -13 11z"/>
</g>
</svg>
